<svg xmlns="http://www.w3.org/2000/svg" viewBox="0 0 26 32" fill="none">
  <path
    fill-rule="evenodd"
    clip-rule="evenodd"
    fill="#4A5568"
    d="M0.584525 0.0730702C0.327866 0.185621 0.0649472 0.504515 0.0211274 0.754627C0.00234749 0.867178 -0.00391248 7.7953 0.00234749 16.1616L0.0211274 31.3684L0.152587 31.5435C0.346646 31.8061 0.672164 32 0.922563 32C1.09784 32.0062 2.46252 31.3497 7.07611 29.0486L13.0106 26.091L18.9388 29.0486C23.5586 31.3497 24.9233 32.0062 25.0986 32C25.349 32 25.6745 31.8061 25.8685 31.5435L26 31.3684V0.617065L25.8685 0.448239C25.7997 0.354447 25.662 0.216885 25.5681 0.148104L25.399 0.0167948L13.0857 0.00428919C2.94453 -0.00821645 0.741024 0.00428919 0.584525 0.0730702ZM12.7727 6.05076C12.66 6.07577 12.491 6.16331 12.4033 6.2446C12.2781 6.3634 10.6756 9.44604 10.5629 9.78995C10.5441 9.83997 9.88684 9.95877 8.60355 10.1464C6.50646 10.4527 6.36874 10.4965 6.1559 10.8842C6.01192 11.1531 6.04948 11.6595 6.22476 11.8721C6.29362 11.9534 6.92587 12.585 7.63325 13.2728C8.34063 13.9606 8.93532 14.5483 8.9541 14.5859C8.96662 14.6171 8.84768 15.4237 8.67867 16.3679C8.32811 18.3626 8.30933 18.5814 8.47835 18.8753C8.63485 19.1504 9.08556 19.388 9.37352 19.3443C9.4862 19.3255 10.3376 18.9191 11.264 18.4313C12.1905 17.9499 12.9793 17.5559 13.0168 17.5559C13.0544 17.5559 13.7555 17.9061 14.5693 18.3313C16.4974 19.3505 16.5913 19.388 16.898 19.338C17.2173 19.2817 17.549 18.9753 17.6304 18.6502C17.6868 18.4376 17.6429 18.0999 17.3675 16.5242L17.0357 14.6484L18.4442 13.2352C19.2205 12.4599 19.8778 11.7721 19.9028 11.7033C20.0655 11.2844 19.8778 10.7029 19.5147 10.5215C19.4145 10.4653 18.4693 10.2964 17.4113 10.1401C16.1718 9.95877 15.477 9.83372 15.4582 9.78369C15.4457 9.73992 15.0576 8.95832 14.6006 8.04541C13.768 6.37591 13.5489 6.05076 13.261 6.05076C13.1984 6.05076 13.1107 6.03826 13.0606 6.02575C13.0168 6.01325 12.8854 6.02575 12.7727 6.05076Z"
  />
</svg>
